<?xml version="1.0" encoding="utf-8"?>
<!-- Generator: Adobe Illustrator 24.1.1, SVG Export Plug-In . SVG Version: 6.00 Build 0)  -->
<svg version="1.1" id="Logo" xmlns="http://www.w3.org/2000/svg" xmlns:xlink="http://www.w3.org/1999/xlink" x="0px" y="0px"
	 viewBox="0 0 260 27.59" style="enable-background:new 0 0 260 27.59;" xml:space="preserve">
<style type="text/css">
	.st0{fill:#FFFFFF;}
</style>
<g id="Logo_1_">
	<polygon class="st0" points="19.95,21.6 8.58,0 0,0 14.82,27.58 25.07,27.58 39.89,0 31.31,0 	"/>
	<polygon class="st0" points="107.68,18.76 97.58,0 84.86,0 84.86,27.58 92.5,27.58 92.5,7.17 93.25,7.17 104.67,27.58 
		110.69,27.58 122.12,7.17 122.86,7.17 122.86,27.58 130.5,27.58 130.5,0 117.79,0 	"/>
	<polygon class="st0" points="149.58,0 134.76,27.58 143.35,27.58 154.71,5.98 166.07,27.58 174.66,27.58 159.84,0 	"/>
	<polygon class="st0" points="245.18,0 234.93,0 220.11,27.58 228.69,27.58 240.05,5.98 251.42,27.58 260,27.58 	"/>
	<path class="st0" d="M74.18,1.06C73.5,0.38,72.59,0,71.63,0L44.28,0v27.58h7.87V20.2H63.6l5.06,7.38h9.05l-5.06-7.5l0.46-0.2
		c0.41-0.18,0.77-0.43,1.08-0.74l3.02-3.02c0.68-0.68,1.06-1.59,1.06-2.56V6.63c0-0.97-0.38-1.87-1.06-2.56L74.18,1.06z
		 M70.62,11.94c0,0.29-0.11,0.57-0.32,0.77l-0.95,0.95c-0.21,0.21-0.48,0.32-0.77,0.32H52.15V6.23h16.42c0.29,0,0.57,0.11,0.77,0.32
		L70.3,7.5c0.21,0.21,0.32,0.48,0.32,0.77V11.94z"/>
	<path class="st0" d="M212.4,1.06C211.73,0.39,210.8,0,209.85,0h-30.61v27.58h30.61c0.95,0,1.88-0.39,2.55-1.06l3.02-3.02
		c0.67-0.67,1.06-1.6,1.06-2.55V6.63c0-0.95-0.39-1.88-1.06-2.55L212.4,1.06z M208.6,18.13c0,0.47-0.18,0.91-0.52,1.25l-1.23,1.23
		c-0.33,0.33-0.78,0.52-1.25,0.52h-18.5V6.23h18.5c0.47,0,0.91,0.18,1.25,0.52l1.23,1.23c0.33,0.33,0.52,0.78,0.52,1.25V18.13z"/>
	<polygon class="st0" points="24.02,0 15.83,0 19.92,7.78 	"/>
	<polygon class="st0" points="150.62,27.58 158.81,27.58 154.71,19.8 	"/>
	<polygon class="st0" points="235.96,27.58 244.15,27.58 240.05,19.8 	"/>
</g>
</svg>
