<svg xmlns="http://www.w3.org/2000/svg" viewBox="0 0 406.92 69.12" xmlns:v="https://vecta.io/nano"><path d="M45.69 68.16H35.13v-7.49c-2.69 4.61-7.97 8.45-16.03 8.45C8.83 69.12 0 62.69 0 47.62V18.24h10.66v27.65c0 8.74 4.8 13.63 12.19 13.63s12.29-4.9 12.29-13.63V18.24H45.7v49.92zM52.42 0h10.56v68.16H52.42V0zm21.79 56.06V26.78H67.3v-8.54h6.91V5.47h10.65v12.77h10.08v8.54H84.86v27.36c0 2.88 1.54 5.09 5.47 5.09 1.15 0 2.78-.19 4.61-.86v8.35c-1.82 1.54-5.09 2.02-7.78 2.02-7.58 0-12.96-3.74-12.96-12.67zM99.74 0h10.56v9.5H99.74V0zm0 18.24h10.56v49.92H99.74V18.24zm49.63 21.31c0-8.06-3.94-12.67-10.56-12.67s-11.23 4.61-11.23 12.67v28.61h-10.56V18.24h10.56v7.1c2.59-4.42 7.3-8.06 14.78-8.06 6.53 0 12.1 2.88 15.17 9.12 2.69-4.9 8.16-9.12 16.7-9.12 10.46 0 18.14 6.62 18.14 21.7v29.18h-10.66V39.55c0-8.06-3.94-12.67-10.56-12.67s-11.14 4.61-11.14 12.67v28.61h-10.66V39.55zm47.23 3.65c0-17.18 12.38-25.92 24.19-25.92 9.12 0 15.46 4.99 17.28 8.93h.29v-7.97h10.56v49.92h-10.56v-7.97h-.29c-1.82 3.94-8.16 8.93-17.28 8.93-11.81 0-24.19-8.74-24.19-25.92zm26.21 16.32c8.06 0 15.84-5.57 15.84-16.32s-7.78-16.32-15.84-16.32-15.74 5.57-15.74 16.32 7.78 16.32 15.74 16.32zm37.35-3.46V26.78h-6.91v-8.54h6.91V5.47h10.65v12.77h10.08v8.54h-10.08v27.36c0 2.88 1.54 5.09 5.47 5.09 1.15 0 2.78-.19 4.61-.86v8.35c-1.82 1.54-5.09 2.02-7.78 2.02-7.58 0-12.96-3.74-12.96-12.67zm22.65-12.86c0-16.8 12.38-25.92 25.05-25.92s26.49 9.02 24.09 29.95h-39.17c1.63 8.64 8.45 13.05 16.99 13.05 5.38 0 10.17-1.73 13.82-5.18l4.99 5.18c-4.32 5.38-11.52 8.83-19.97 8.83-13.54 0-25.82-9.31-25.82-25.92zm39.74-3.84c-.58-8.64-7.49-13.06-14.59-13.06s-13.73 4.22-15.26 13.06h29.85z" fill="#fff"/><g fill="#aa64fa"><path d="M359.76 26.06l13.76-20.58h-9.41l-9.05 13.58-9.12-13.58h-9.41l27.99 41.75h9.41l-14.17-21.17z"/><path d="M336.18 47.23h9.41l9.47-14.12h-9.43l-9.45 14.12zm53.57-13.82h-6.23v13.82h-8.06V5.48h14.64c8.88 0 14.76 5.65 14.76 14.17 0 6-2.88 10.35-7.7 12.41l9.76 15.17h-8.59l-8.59-13.82zm-.47-7c4.41 0 7.41-1.88 7.41-6.76s-3-6.76-7.41-6.76h-5.76v13.53h5.76z"/></g></svg>