<?xml version="1.0" encoding="utf-8"?>
<!-- Generator: Adobe Illustrator 26.3.1, SVG Export Plug-In . SVG Version: 6.00 Build 0)  -->
<svg version="1.1" id="Layer_1" xmlns:v="https://vecta.io/nano"
	 xmlns="http://www.w3.org/2000/svg" xmlns:xlink="http://www.w3.org/1999/xlink" x="0px" y="0px" viewBox="0 0 406.9 69.1"
	 style="enable-background:new 0 0 406.9 69.1;" xml:space="preserve">
<style type="text/css">
	.st0{fill:#FFFFFF;}
	.st1{fill:#281E5A;}
</style>
<path class="st0" d="M45.7,68.2H35.1v-7.5c-2.7,4.6-8,8.4-16,8.4C8.8,69.1,0,62.7,0,47.6V18.2h10.7v27.6c0,8.7,4.8,13.6,12.2,13.6
	s12.3-4.9,12.3-13.6V18.2h10.6L45.7,68.2L45.7,68.2z M52.4,0H63v68.2H52.4V0z M74.2,56.1V26.8h-6.9v-8.5h6.9V5.5h10.7v12.8h10.1v8.5
	H84.9v27.4c0,2.9,1.5,5.1,5.5,5.1c1.2,0,2.8-0.2,4.6-0.9v8.4c-1.8,1.5-5.1,2-7.8,2C79.6,68.7,74.2,65,74.2,56.1L74.2,56.1z M99.7,0
	h10.6v9.5H99.7V0z M99.7,18.2h10.6v49.9H99.7V18.2z M149.4,39.5c0-8.1-3.9-12.7-10.6-12.7s-11.2,4.6-11.2,12.7v28.6H117V18.2h10.6
	v7.1c2.6-4.4,7.3-8.1,14.8-8.1c6.5,0,12.1,2.9,15.2,9.1c2.7-4.9,8.2-9.1,16.7-9.1c10.5,0,18.1,6.6,18.1,21.7v29.2h-10.7V39.5
	c0-8.1-3.9-12.7-10.6-12.7S160,31.5,160,39.5v28.6h-10.7L149.4,39.5L149.4,39.5z M196.6,43.2c0-17.2,12.4-25.9,24.2-25.9
	c9.1,0,15.5,5,17.3,8.9h0.3v-8h10.6v49.9h-10.6v-8h-0.3c-1.8,3.9-8.2,8.9-17.3,8.9C209,69.1,196.6,60.4,196.6,43.2z M222.8,59.5
	c8.1,0,15.8-5.6,15.8-16.3s-7.8-16.3-15.8-16.3s-15.7,5.6-15.7,16.3S214.8,59.5,222.8,59.5z M260.2,56.1V26.8h-6.9v-8.5h6.9V5.5
	h10.6v12.8h10.1v8.5h-10.1v27.4c0,2.9,1.5,5.1,5.5,5.1c1.1,0,2.8-0.2,4.6-0.9v8.4c-1.8,1.5-5.1,2-7.8,2
	C265.5,68.7,260.1,65,260.2,56.1L260.2,56.1z M282.8,43.2c0-16.8,12.4-25.9,25-25.9s26.5,9,24.1,30h-39.2c1.6,8.6,8.5,13,17,13
	c5.4,0,10.2-1.7,13.8-5.2l5,5.2c-4.3,5.4-11.5,8.8-20,8.8C295.1,69.1,282.8,59.8,282.8,43.2L282.8,43.2z M322.5,39.4
	c-0.6-8.6-7.5-13.1-14.6-13.1s-13.7,4.2-15.3,13.1H322.5z"/>
<g>
	<path class="st1" d="M359.8,26.1l13.8-20.6h-9.4l-9,13.6l-9.1-13.6h-9.4l28,41.8h9.4L359.8,26.1z"/>
	<path class="st1" d="M336.2,47.2h9.4l9.5-14.1h-9.4L336.2,47.2z M389.8,33.4h-6.2v13.8h-8.1V5.5h14.6c8.9,0,14.8,5.7,14.8,14.2
		c0,6-2.9,10.4-7.7,12.4l9.8,15.2h-8.6L389.8,33.4L389.8,33.4z M389.3,26.4c4.4,0,7.4-1.9,7.4-6.8s-3-6.8-7.4-6.8h-5.8v13.5
		L389.3,26.4L389.3,26.4z"/>
</g>
</svg>
