<?xml version="1.0" encoding="UTF-8"?><svg id="Layer_2" xmlns="http://www.w3.org/2000/svg" viewBox="0 0 416.52 69.12"><defs><style>.cls-1{fill:#aa64fa;}.cls-2{fill:#281e5a;}</style></defs><g id="positive"><path class="cls-2" d="M47.04,68.16h-12.86v-6.82c-2.78,4.42-7.78,7.78-15.26,7.78-10.27,0-18.91-6.34-18.91-21.5V18.24H12.86v27.26c0,7.3,3.94,12.1,10.66,12.1s10.66-4.8,10.66-12.1V18.24h12.86v49.92Z"/><path class="cls-2" d="M52.99,0h12.86V68.16h-12.86V0Z"/><path class="cls-2" d="M76.51,54.33V28.51h-7.1v-10.27h7.1V5.47h12.96v12.77h10.27v10.27h-10.27v23.71c0,2.59,1.44,5.09,5.66,5.09,1.15,0,2.88-.19,4.7-.77v9.89c-1.92,1.73-5.57,2.3-8.74,2.3-8.45,0-14.59-4.13-14.59-14.4Z"/><path class="cls-2" d="M154.36,39.74c0-7.1-3.74-10.94-9.22-10.94s-9.7,3.84-9.7,10.94v28.41h-12.86V18.24h12.86v6.43c2.69-4.22,7.3-7.39,14.3-7.39,6.14,0,11.52,2.59,14.59,8.35,2.88-4.61,8.35-8.35,16.51-8.35,10.56,0,18.24,6.62,18.24,21.89v28.99h-12.96v-28.41c0-7.1-3.65-10.94-9.22-10.94s-9.7,3.84-9.7,10.94v28.41h-12.86v-28.41Z"/><path class="cls-2" d="M202.56,43.2c0-17.28,12.38-25.92,24-25.92,8.93,0,14.69,4.9,15.93,7.68h.29v-6.72h12.86v49.92h-12.86v-6.72h-.29c-1.25,2.78-7.01,7.68-15.93,7.68-11.62,0-24-8.64-24-25.92Zm26.59,14.4c7.2,0,13.92-4.99,13.92-14.4s-6.72-14.4-13.92-14.4-13.92,5.09-13.92,14.4,6.72,14.4,13.92,14.4Z"/><path class="cls-2" d="M266.3,54.33V28.51h-7.1v-10.27h7.1V5.47h12.96v12.77h10.27v10.27h-10.27v23.71c0,2.59,1.44,5.09,5.66,5.09,1.15,0,2.88-.19,4.7-.77v9.89c-1.92,1.73-5.57,2.3-8.74,2.3-8.45,0-14.59-4.13-14.59-14.4Z"/><path class="cls-2" d="M290.68,43.2c0-16.8,12.48-25.92,25.25-25.92s27.07,8.93,24.29,30.91h-37.34c1.82,6.82,7.78,10.37,15.26,10.37,4.9,0,9.21-1.34,12.86-4.51l5.86,6.24c-4.13,5.18-11.33,8.83-20.16,8.83-13.73,0-26.01-9.31-26.01-25.92Zm38.11-4.42c-.77-7.1-6.72-10.66-12.77-10.66s-11.71,3.46-13.34,10.66h26.11Z"/><g><polygon class="cls-1" points="367.9 26.59 381.92 5.47 370.85 5.47 362.42 18.22 353.94 5.47 342.81 5.47 371.09 48.19 382.22 48.19 367.9 26.59"/><polygon class="cls-1" points="342.57 48.19 353.64 48.19 362.36 35.01 351.29 35.01 342.57 48.19"/></g><path class="cls-1" d="M398.04,34.41h-5.17v13.78h-9.51V5.47h15.52c9.09,0,15.34,5.72,15.34,14.8,0,6.02-2.83,10.29-7.46,12.52l9.75,15.4h-10.05l-8.42-13.78Zm-.12-8.12c3.85,0,6.68-1.44,6.68-6.02s-2.83-6.08-6.68-6.08h-5.05v12.09h5.05Z"/><path class="cls-2" d="M103.77,0h12.86V11.33h-12.86V0Zm0,18.24h12.86v49.92h-12.86V18.24Z"/></g></svg>